<svg width="380pt" height="57pt" viewBox="0 0 380 57" xmlns="http://www.w3.org/2000/svg"><g id="fontsvg1709060090027" stroke-linecap="round" fill-rule="evenodd" fill="#ffbf00"><path d="M 9.375 46.875 L 0 46.875 L 0 4.688 L 4.688 4.688 L 4.688 9.375 L 9.375 9.375 L 9.375 14.063 L 14.063 14.063 L 14.063 18.75 L 18.75 18.75 L 18.75 14.063 L 23.438 14.063 L 23.438 9.375 L 28.125 9.375 L 28.125 4.688 L 32.813 4.688 L 32.813 46.875 L 23.438 46.875 L 23.438 23.438 L 18.75 23.438 L 18.75 28.125 L 14.063 28.125 L 14.063 23.438 L 9.375 23.438 L 9.375 46.875 Z M 93.75 56.25 L 75 56.25 L 75 51.563 L 70.313 51.563 L 70.313 42.188 L 75 42.188 L 75 37.5 L 70.313 37.5 L 70.313 32.813 L 75 32.813 L 75 28.125 L 70.313 28.125 L 70.313 18.75 L 75 18.75 L 75 14.063 L 103.125 14.063 L 103.125 18.75 L 98.438 18.75 L 98.438 28.125 L 93.75 28.125 L 93.75 32.813 L 79.688 32.813 L 79.688 37.5 L 93.75 37.5 L 93.75 42.188 L 98.438 42.188 L 98.438 51.563 L 93.75 51.563 L 93.75 56.25 Z M 135.938 46.875 L 112.5 46.875 L 112.5 42.188 L 107.813 42.188 L 107.813 32.813 L 112.5 32.813 L 112.5 28.125 L 126.563 28.125 L 126.563 18.75 L 117.188 18.75 L 117.188 23.438 L 107.813 23.438 L 107.813 18.75 L 112.5 18.75 L 112.5 14.063 L 131.25 14.063 L 131.25 18.75 L 135.938 18.75 L 135.938 46.875 Z M 234.375 46.875 L 215.625 46.875 L 215.625 42.188 L 210.938 42.188 L 210.938 18.75 L 215.625 18.75 L 215.625 14.063 L 234.375 14.063 L 234.375 18.75 L 239.063 18.75 L 239.063 32.813 L 220.313 32.813 L 220.313 42.188 L 229.688 42.188 L 229.688 37.5 L 239.063 37.5 L 239.063 42.188 L 234.375 42.188 L 234.375 46.875 Z M 201.563 46.875 L 178.125 46.875 L 178.125 42.188 L 173.438 42.188 L 173.438 18.75 L 178.125 18.75 L 178.125 14.063 L 192.188 14.063 L 192.188 4.688 L 201.563 4.688 L 201.563 46.875 Z M 300 46.875 L 281.25 46.875 L 281.25 42.188 L 276.563 42.188 L 276.563 9.375 L 281.25 9.375 L 281.25 4.688 L 300 4.688 L 300 9.375 L 304.688 9.375 L 304.688 42.188 L 300 42.188 L 300 46.875 Z M 323.438 46.875 L 314.063 46.875 L 314.063 14.063 L 337.5 14.063 L 337.5 18.75 L 342.188 18.75 L 342.188 28.125 L 332.813 28.125 L 332.813 18.75 L 323.438 18.75 L 323.438 46.875 Z M 375 46.875 L 356.25 46.875 L 356.25 42.188 L 351.563 42.188 L 351.563 18.75 L 356.25 18.75 L 356.25 14.063 L 375 14.063 L 375 18.75 L 379.688 18.75 L 379.688 42.188 L 375 42.188 L 375 46.875 Z M 60.938 46.875 L 42.188 46.875 L 42.188 42.188 L 46.875 42.188 L 46.875 18.75 L 42.188 18.75 L 42.188 14.063 L 56.25 14.063 L 56.25 42.188 L 60.938 42.188 L 60.938 46.875 Z M 285.938 42.188 L 295.313 42.188 L 295.313 9.375 L 285.938 9.375 L 285.938 42.188 Z M 182.813 42.188 L 192.188 42.188 L 192.188 18.75 L 182.813 18.75 L 182.813 42.188 Z M 360.938 42.188 L 370.313 42.188 L 370.313 18.75 L 360.938 18.75 L 360.938 42.188 Z M 56.25 9.375 L 46.875 9.375 L 46.875 0 L 56.25 0 L 56.25 9.375 Z M 79.688 51.563 L 89.063 51.563 L 89.063 42.188 L 79.688 42.188 L 79.688 51.563 Z M 79.688 28.125 L 89.063 28.125 L 89.063 18.75 L 79.688 18.75 L 79.688 28.125 Z M 117.188 42.188 L 126.563 42.188 L 126.563 32.813 L 117.188 32.813 L 117.188 42.188 Z M 220.313 28.125 L 229.688 28.125 L 229.688 18.75 L 220.313 18.75 L 220.313 28.125 Z" vector-effect="non-scaling-stroke"/></g></svg>
